<svg width="50" height="52" viewBox="0 0 50 52" fill="none" xmlns="http://www.w3.org/2000/svg">
<path d="M1.11316 17.276C1.30142 21.2566 2.53803 29.691 3.6199 34.5829C4.5625 38.8482 4.3304 49.2001 4.3304 49.2001C5.07571 50.4728 21.3708 51.3126 25.8169 50.439C30.156 49.5862 42.7889 51.5778 44.2976 50.2505C44.2976 50.2505 47.3266 37.9486 47.2209 33.5728C47.1267 29.6884 48.8237 18.2237 48.8237 18.2237C45.4298 17.4658 28.0799 18.4122 23.7421 17.8441C16.7661 17.0862 7.33745 19.3599 1.11316 17.276" stroke="#1F2548" stroke-width="0.975" stroke-linecap="round" stroke-linejoin="round"/>
<path fill-rule="evenodd" clip-rule="evenodd" d="M10.5708 17.9564C11.2362 15.9453 11.7171 12.4028 12.9499 10.5828C14.4702 8.18948 15.6578 6.13158 17.2735 3.73698C20.5952 -0.956019 26.8672 -0.71812 31.4267 1.96508C34.8477 3.97618 36.1746 5.21638 37.0308 9.04618C37.5053 11.6319 39.357 15.1705 39.8341 17.7549C38.9792 17.6587 36.2971 17.7146 35.4422 17.8082C34.3951 13.4025 33.8961 8.09328 31.0476 4.55078C27.6267 0.43238 24.6351 -0.95472 20.4546 3.06748C18.5565 4.98238 17.5572 6.56318 16.8931 9.14758C16.2277 11.9244 15.6114 15.0847 16.8402 17.6106C14.1865 17.9096 13.0982 18.1735 10.5708 17.9564Z" fill="#1F2548"/>
<path fill-rule="evenodd" clip-rule="evenodd" d="M26.8272 42.0247C26.7794 42.0247 26.7266 42.0208 26.6595 42.0169C26.5422 42.0091 26.3823 41.9987 26.1347 41.9987C25.6537 41.9987 25.459 41.8583 25.3159 41.727C25.3017 41.714 25.2888 41.7036 25.2798 41.6958L25.0567 41.5203C24.5525 41.1238 24.0316 40.7143 23.5235 40.3048C23.392 40.1995 23.2166 40.0253 23.2102 39.7367V39.7354C23.2037 39.1959 23.2502 38.6343 23.352 38.0168C23.3972 37.7347 23.5493 37.5722 23.8317 37.5072C24.0019 37.4695 24.1657 37.4643 24.3166 37.4643C24.3552 37.4643 24.3939 37.4643 24.4326 37.4643C24.4687 37.4643 24.5061 37.4656 24.5435 37.4656C24.617 37.4656 24.6737 37.4643 24.7266 37.4604C24.8117 37.4552 24.8878 37.45 24.9561 37.4461C25.2837 37.4253 25.4203 37.4162 25.5274 37.4162C25.6086 37.4162 25.6679 37.4214 25.7685 37.4292C25.8755 37.4383 26.0393 37.4513 26.341 37.4669C27.0477 37.502 27.753 37.5891 28.4351 37.6749C28.6208 37.697 28.7846 37.7256 28.8968 37.8374C29.0141 37.9544 29.036 38.1234 29.0502 38.3015C29.0734 38.5836 29.0631 38.789 29.0541 38.9892C29.0463 39.1803 29.0373 39.361 29.0567 39.608C29.085 39.9551 28.7743 40.2853 28.5886 40.4829L28.5667 40.5063C28.4635 40.6168 28.3565 40.7364 28.2443 40.8625C27.9335 41.2122 27.5815 41.6087 27.205 41.8856C27.0773 41.9792 26.9883 42.0247 26.8272 42.0247ZM23.5545 39.7302C23.5583 39.842 23.6112 39.9304 23.7389 40.0331C24.2443 40.4413 24.7653 40.8508 25.2682 41.2473L25.4926 41.4228C25.5106 41.4371 25.5287 41.454 25.5467 41.4696C25.6305 41.5463 25.7453 41.6516 26.1347 41.6516C26.3926 41.6516 26.5602 41.662 26.6827 41.6698C26.7433 41.6737 26.7911 41.6776 26.8272 41.6776C26.8878 41.6776 26.9084 41.675 27.0012 41.6061C27.3494 41.35 27.6743 40.9847 27.9877 40.6311C28.1024 40.5024 28.2095 40.3815 28.3165 40.2671L28.3384 40.2437C28.4661 40.1085 28.7291 39.829 28.7137 39.6353C28.693 39.3675 28.7021 39.1673 28.7111 38.9736C28.7188 38.776 28.7278 38.5888 28.7072 38.3288C28.7021 38.2716 28.6904 38.1195 28.6543 38.0844C28.6169 38.0467 28.4609 38.0272 28.3939 38.0194C27.7169 37.9349 27.018 37.8478 26.3243 37.814C26.0174 37.7984 25.851 37.7841 25.7401 37.7763C25.646 37.7685 25.5944 37.7646 25.5274 37.7646C25.4307 37.7646 25.2978 37.7724 24.9781 37.7932C24.9097 37.7971 24.8336 37.8023 24.7472 37.8075C24.6879 37.8114 24.6234 37.8127 24.5435 37.8127C24.5048 37.8127 24.4674 37.8127 24.4287 37.8114C24.3913 37.8114 24.3539 37.8114 24.3166 37.8114C24.185 37.8114 24.0445 37.8153 23.9065 37.8465C23.7479 37.8829 23.7131 37.9427 23.6924 38.0727C23.6924 38.0727 23.6924 38.0727 23.6924 38.074C23.5944 38.6694 23.5493 39.2115 23.5545 39.7302Z" fill="#1F2548"/>
<path fill-rule="evenodd" clip-rule="evenodd" d="M36.5483 37.0806C36.5419 37.0038 36.5341 36.9089 36.5251 36.7906C36.5251 36.7893 36.5238 36.788 36.5238 36.7867C36.5238 36.7854 36.5238 36.7854 36.5238 36.7842C36.3059 34.8849 36.0248 33.1454 35.6908 31.6114C35.3581 30.0891 35.0873 29.2961 34.9867 29.0257C34.9855 29.0244 34.9855 29.0231 34.9842 29.0205V29.0192C34.9855 29.0166 34.9893 29.0076 35.0061 28.9932C35.1582 28.8619 35.2949 28.7137 35.4277 28.5707C35.4987 28.494 35.5722 28.4134 35.6457 28.3393C35.6457 28.3393 35.6457 28.3393 35.647 28.338C35.941 28.0364 36.0918 27.6465 36.0944 27.1797V27.1784C36.0944 26.8807 36.0776 26.5687 35.87 26.3087C35.6844 26.0773 35.4226 25.8992 35.0693 25.764C34.7366 25.634 34.4323 25.6847 34.1383 25.92V25.9213C34.0274 26.011 33.9345 26.115 33.8456 26.2151C33.7875 26.2801 33.7321 26.3438 33.6728 26.4023C33.5993 26.3685 33.5322 26.3516 33.469 26.3347C33.4574 26.3308 33.4445 26.3282 33.4329 26.3243C33.2215 26.2671 32.6837 26.1293 32.2453 26.0942C32.1357 26.0851 32.0287 26.076 31.9217 26.0669C31.1544 25.9993 30.4297 25.9369 29.6264 25.9642C28.9675 25.9408 26.9804 25.9226 25.3827 25.907C24.4634 25.8992 23.6703 25.8914 23.3015 25.8849C22.671 25.8745 22.0301 25.855 21.4099 25.8368C21.0643 25.8264 20.7071 25.816 20.3564 25.8069C20.2584 25.8043 20.1604 25.8017 20.0624 25.7991C19.6072 25.7848 19.1352 25.7705 18.6723 25.7783C18.3371 25.7835 18.1733 25.6574 17.9709 25.4065C17.7052 25.075 17.3945 25.088 17.125 25.1426C16.8284 25.2037 16.5705 25.335 16.3358 25.543C16.1243 25.7315 15.9567 25.959 15.802 26.1748C15.6434 26.3971 15.5776 26.6181 15.6008 26.8508C15.6201 27.0393 15.6988 27.2356 15.8471 27.4683C16.0237 27.7387 16.2584 27.9506 16.4854 28.1547C16.5692 28.2301 16.6504 28.3029 16.7265 28.377C16.6981 28.4862 16.6685 28.5954 16.6401 28.7033C16.5563 29.0218 16.4686 29.3507 16.4016 29.6823C16.3577 29.9072 16.3074 30.1347 16.2584 30.3544C16.1965 30.6312 16.1346 30.9159 16.0805 31.2006C15.9825 31.5321 15.624 33.4419 15.2836 35.271C15.2359 35.5283 15.2011 35.7142 15.1869 35.7896C15.1018 36.2368 15.0128 36.7685 15.0102 37.3184C15.0051 37.932 15.2243 38.3403 15.7207 38.6405C16.6453 39.1995 17.9954 39.8756 18.7291 40.1473C19.3725 40.3826 20.2042 40.6634 21.0114 40.9181C21.8419 41.1794 22.5175 41.3719 22.8657 41.4447C22.8773 41.4473 22.8889 41.4485 22.9005 41.4485C22.9224 41.4485 22.9431 41.4433 22.9624 41.4356C23.014 41.5097 23.0669 41.5799 23.1223 41.6488C23.1223 41.6501 23.1236 41.6513 23.1249 41.6526C23.1803 41.7176 23.6755 42.2831 23.9669 42.4795C24.0365 42.5419 24.1397 42.5938 24.2403 42.6432C24.2712 42.6575 24.2996 42.6719 24.3254 42.6861C24.7406 42.9072 25.1132 43.0112 25.4872 43.0112C25.5259 43.0112 25.5646 43.0112 25.6045 43.0086H25.6058C25.6058 43.0086 25.6058 43.0086 25.6071 43.0086C25.6987 43.0008 25.9398 43.0047 26.1732 43.0086C26.3305 43.0112 26.484 43.0138 26.6103 43.0138C26.7302 43.0138 26.8257 43.0124 26.8837 43.0059C26.9598 42.9968 27.0539 42.9995 27.1364 43.0021H27.1377C27.6058 43.0086 28.0558 42.9734 28.5123 42.8955C28.7612 42.8539 28.961 42.7394 29.1222 42.5483C29.4678 42.1362 29.7309 41.7385 30.03 41.1756L30.1048 41.0429C30.1164 41.0455 30.1267 41.0455 30.1383 41.0455C30.159 41.0455 30.1809 41.0429 30.2002 41.0338L31.0835 40.6867C31.0874 40.6854 31.09 40.6841 31.0925 40.6828C31.4381 40.5243 31.7644 40.3917 32.1409 40.2369C32.52 40.0822 32.9494 39.9054 33.4858 39.6688C34.2762 39.3191 35.0306 38.8889 35.7604 38.4728L35.901 38.3923C36.106 38.2766 36.458 38.036 36.5212 37.7396C36.5212 37.7396 36.5212 37.7396 36.5212 37.7383C36.5805 37.455 36.578 37.4264 36.5483 37.0806ZM29.9939 40.7608L29.8237 41.0585C29.8237 41.0598 29.8224 41.0612 29.8224 41.0625C29.5323 41.6098 29.277 41.9958 28.9417 42.395C28.8166 42.5431 28.6683 42.6277 28.4736 42.6614C28.03 42.7369 27.5942 42.7706 27.1416 42.7641C27.0513 42.7615 26.9495 42.7589 26.8579 42.7694C26.7535 42.781 26.4479 42.7759 26.1771 42.7719C25.9282 42.7668 25.6948 42.7642 25.5904 42.7706C25.2216 42.7927 24.8541 42.6992 24.435 42.4755C24.4053 42.4599 24.3744 42.4443 24.3447 42.43C24.2596 42.3871 24.1642 42.3403 24.1229 42.3C24.1178 42.2948 24.1113 42.2896 24.1049 42.2858C23.8908 42.1453 23.5014 41.7255 23.3041 41.4979C22.8554 40.9351 22.5137 40.172 22.2945 39.6467C22.1475 39.301 22.1101 38.9109 22.1849 38.5196C22.2816 38.0269 22.4221 37.533 22.5588 37.0559C22.6181 36.8491 22.68 36.636 22.7367 36.424C22.7845 36.2485 22.8322 36.0744 22.8786 35.8988C23.0179 35.3827 23.1623 34.8497 23.3067 34.3258C23.3376 34.2154 23.366 34.1048 23.3944 33.997C23.5633 33.356 23.7232 32.7516 24.141 32.238C24.3525 31.9794 24.5472 31.865 24.7922 31.8545C24.9456 31.8467 25.1029 31.8376 25.2538 31.8299C25.9553 31.7895 26.6825 31.748 27.3917 31.8702C27.4549 31.8819 27.5181 31.891 27.58 31.9001C27.8353 31.9377 28.0777 31.9742 28.297 32.1224C28.4788 32.2459 28.5948 32.4395 28.716 32.6437C28.738 32.68 28.7612 32.7165 28.7831 32.7529C28.8244 32.8309 28.9559 33.2638 29.1067 33.8617C29.188 34.1841 29.2679 34.5131 29.3453 34.8316C29.4871 35.4074 29.6316 36.0042 29.7876 36.5865C29.8546 36.8375 29.9294 37.0897 30.0029 37.3328C30.1796 37.9204 30.3614 38.5275 30.4246 39.1553C30.4723 39.6403 30.2337 40.3019 29.9939 40.7608ZM36.1847 37.6669C36.1602 37.7812 35.9822 37.9476 35.7321 38.0906L35.5915 38.1699C34.8694 38.582 34.1215 39.0071 33.3478 39.3503C32.8153 39.5856 32.3885 39.7612 32.0106 39.9158C31.6328 40.0705 31.3053 40.2044 30.9546 40.3643L30.3292 40.6114C30.4143 40.4202 30.4878 40.2239 30.5419 40.038C30.6451 39.691 30.6838 39.3854 30.6593 39.1319C30.5935 38.4806 30.4078 37.8618 30.2286 37.2638C30.1564 37.0233 30.0816 36.7724 30.0158 36.5254C29.8611 35.9444 29.7154 35.3502 29.5748 34.7743C29.4975 34.4558 29.4162 34.1269 29.335 33.8032C29.277 33.5718 29.1854 33.2234 29.1055 32.9634C29.1055 32.9634 29.1106 32.9114 29.1777 32.8035C29.2447 32.6943 29.3543 32.5656 29.3543 32.5656C29.3543 32.5656 29.4291 32.7294 29.5697 32.823C29.7089 32.9166 29.8572 32.9595 30.061 32.9205C30.266 32.8816 30.3614 32.7294 30.3898 32.5812C30.4181 32.4344 30.3782 32.1028 30.2711 32.0183C29.9642 31.7414 29.7012 31.8168 29.5581 31.9C29.4136 31.9832 29.3131 32.1834 29.3002 32.303C29.286 32.4226 29.2847 32.4279 29.2228 32.5097C29.1596 32.5917 29.0332 32.7437 29.0332 32.7437C29.0165 32.6956 29.001 32.6592 28.9881 32.6358C28.9881 32.6358 28.9868 32.6346 28.9868 32.6332L28.9855 32.6319C28.9636 32.5955 28.9404 32.5578 28.9185 32.5201C28.7882 32.3031 28.6541 32.0781 28.4285 31.926C28.1654 31.7466 27.8843 31.705 27.6135 31.6647C27.5542 31.6556 27.4923 31.6466 27.4317 31.6361C26.6954 31.5087 25.9553 31.5516 25.2396 31.5919C25.09 31.601 24.934 31.6101 24.7819 31.6166C24.4685 31.6309 24.2145 31.7752 23.9592 32.0872C23.8754 32.1899 23.8006 32.2952 23.7348 32.4044C23.7348 32.4044 23.7064 32.3759 23.6071 32.3225C23.5066 32.2692 23.4202 32.2354 23.4137 32.1509C23.4073 32.0651 23.4034 31.9793 23.3183 31.8935C23.2332 31.8077 23.0978 31.7297 22.9276 31.7089C22.7587 31.6881 22.6168 31.7323 22.542 31.7713C22.4685 31.809 22.3796 31.8909 22.3383 31.9845C22.2957 32.0781 22.2351 32.2939 22.3293 32.5305C22.3293 32.5305 22.4002 32.7294 22.689 32.7749C22.9779 32.8191 23.2216 32.6788 23.2745 32.6215C23.3273 32.563 23.4021 32.4825 23.4047 32.3485C23.4047 32.3485 23.5001 32.3602 23.6729 32.511C23.424 32.9608 23.2938 33.4548 23.1674 33.9358C23.1391 34.0424 23.1094 34.153 23.0797 34.2621C22.934 34.786 22.7909 35.3203 22.6516 35.8364C22.6039 36.0119 22.5575 36.1861 22.5098 36.3616C22.4531 36.5709 22.3925 36.7842 22.3331 36.9908C22.1952 37.4718 22.052 37.9711 21.9527 38.4741C21.8689 38.9122 21.9128 39.3504 22.0778 39.739C22.2313 40.1096 22.4466 40.5957 22.7174 41.0533C21.8831 40.844 20.0946 40.2772 18.8477 39.8209C18.2223 39.5896 16.9174 38.9591 15.8974 38.3428C15.508 38.1062 15.3506 37.8111 15.3545 37.3197C15.3571 36.7998 15.4422 36.2875 15.526 35.8559C15.5402 35.7792 15.575 35.5934 15.6227 35.3347C15.829 34.2219 16.3126 31.6153 16.4132 31.2942V31.2929C16.4145 31.2891 16.4157 31.2852 16.4157 31.2825C16.417 31.28 16.417 31.2773 16.417 31.276C16.4183 31.2747 16.4183 31.2747 16.4183 31.2747C16.4699 30.9927 16.5331 30.7066 16.595 30.4297C16.644 30.2087 16.6943 29.9787 16.7394 29.7511C16.8039 29.4313 16.8903 29.1063 16.9741 28.793C17.0102 28.6526 17.0489 28.5083 17.085 28.3666C17.085 28.3653 17.085 28.364 17.085 28.3627C17.0863 28.3588 17.0863 28.3563 17.0876 28.3523C17.0876 28.3498 17.0889 28.3471 17.0889 28.3445C17.0889 28.3419 17.0889 28.3393 17.0889 28.3367C17.0901 28.3341 17.0901 28.3302 17.0901 28.3276C17.0901 28.325 17.0901 28.3224 17.0901 28.3198C17.0901 28.3173 17.0901 28.3133 17.0901 28.3108C17.0889 28.3082 17.0889 28.3055 17.0889 28.3029C17.0889 28.3003 17.0876 28.2977 17.0876 28.2938C17.0876 28.2912 17.0863 28.2886 17.0863 28.286C17.085 28.2834 17.085 28.2808 17.0837 28.2782C17.0837 28.2757 17.0824 28.2717 17.0811 28.2691C17.0811 28.2665 17.0798 28.2652 17.0785 28.2627C17.0785 28.2601 17.0772 28.2561 17.076 28.2535C17.0747 28.2509 17.0734 28.2496 17.0721 28.247C17.0708 28.2444 17.0695 28.2418 17.0682 28.2379C17.0669 28.2366 17.0656 28.234 17.0644 28.2327C17.0631 28.2301 17.0605 28.2275 17.0592 28.2249C17.0579 28.2223 17.0566 28.2197 17.054 28.2184C17.0527 28.2158 17.0515 28.2132 17.0489 28.2119C17.0476 28.2093 17.045 28.2067 17.0424 28.2041C17.0424 28.2028 17.0411 28.2028 17.0411 28.2016C16.9367 28.0949 16.8232 27.9935 16.7149 27.896C16.4944 27.6984 16.2868 27.5112 16.1359 27.2785C16.0186 27.0939 15.9567 26.947 15.9438 26.8157C15.9296 26.6688 15.9735 26.5297 16.0818 26.3776C16.3964 25.9356 16.6788 25.5898 17.1933 25.4832C17.4473 25.4312 17.5763 25.4663 17.7039 25.6249C17.9502 25.9304 18.2107 26.1332 18.6788 26.1254C19.1327 26.1176 19.6007 26.1319 20.0521 26.1462C20.1501 26.1488 20.2494 26.1514 20.3474 26.1553C20.6981 26.1631 21.054 26.1748 21.3996 26.1839C22.0211 26.2034 22.6632 26.2216 23.2964 26.232C23.6652 26.2385 24.4595 26.2463 25.3789 26.2541C26.9804 26.2697 28.9714 26.2879 29.62 26.3113C29.6225 26.3113 29.6251 26.3113 29.6264 26.3113C29.629 26.3113 29.6303 26.3113 29.6329 26.3113C30.4169 26.284 31.1338 26.3464 31.892 26.4127C31.999 26.4218 32.1074 26.4309 32.217 26.44H32.2182C32.6283 26.4725 33.1402 26.6051 33.3427 26.6597C33.3556 26.6636 33.3685 26.6675 33.3814 26.6701C33.4613 26.6922 33.5296 26.7104 33.6006 26.7572C33.6637 26.8001 33.7463 26.7949 33.8056 26.7468C33.9191 26.6532 34.0132 26.5479 34.1035 26.4465C34.186 26.3529 34.2646 26.2645 34.3536 26.1917C34.5509 26.0344 34.7276 26.0032 34.9455 26.089C34.9455 26.089 34.9455 26.089 34.9468 26.089C35.2459 26.2034 35.4535 26.3425 35.6018 26.5258C35.7385 26.6987 35.7501 26.9327 35.7501 27.1784C35.7475 27.5567 35.6341 27.8557 35.4007 28.0949C35.3233 28.173 35.2485 28.2548 35.175 28.3341C35.0435 28.4758 34.9197 28.611 34.7804 28.7293C34.7804 28.7306 34.7804 28.7306 34.7791 28.7306C34.6489 28.8463 34.6064 29.0023 34.6644 29.1492C34.7417 29.3572 35.019 30.1476 35.3542 31.6855C35.6856 33.2078 35.9642 34.9342 36.1808 36.8205C36.1911 36.9389 36.1989 37.0337 36.2053 37.1104C36.2324 37.4328 36.2324 37.4342 36.1847 37.6669Z" fill="#1F2548"/>
</svg>
